<svg xmlns="http://www.w3.org/2000/svg" width="1366" height="767"><defs><linearGradient id="gb2c" x1="0" y1="0" x2="1" y2="1"><stop offset="0" stop-color="#1c6ea4"/><stop offset="1" stop-color="#0f2438"/></linearGradient></defs><path fill="url('#gb2c')" d="M0 0h1366v767H0z"/><rect x="573" y="150" width="220" height="440" rx="28" fill="#fff" opacity=".97"/><rect x="593" y="190" width="180" height="280" rx="8" fill="#eef4fa"/><rect x="609" y="206" width="90" height="10" rx="3" fill="#1c6ea4"/><rect x="609" y="230" width="148" height="70" rx="6" fill="#57b8ec"/><rect x="609" y="312" width="148" height="10" rx="3" fill="#c7d6e3"/><rect x="609" y="330" width="110" height="10" rx="3" fill="#c7d6e3"/><rect x="609" y="360" width="148" height="60" rx="6" fill="#fff"/><rect x="623" y="374" width="60" height="8" rx="3" fill="#1c6ea4"/><rect x="623" y="390" width="90" height="8" rx="3" fill="#c7d6e3"/><rect x="609" y="500" width="148" height="30" rx="8" fill="#1c6ea4"/><circle cx="683" cy="550" r="14" fill="#c7d6e3"/><rect x="290" y="470" width="230" height="110" rx="14" fill="#fff" opacity=".95"/><circle cx="290" cy="525" r="10" fill="#0f2438"/><circle cx="520" cy="525" r="10" fill="#0f2438"/><rect x="315" y="495" width="120" height="12" rx="4" fill="#1c6ea4"/><rect x="315" y="518" width="160" height="8" rx="3" fill="#c7d6e3"/><rect x="315" y="536" width="90" height="16" rx="5" fill="#57b8ec"/><rect x="850" y="440" width="200" height="90" rx="14" fill="#fff" opacity=".95"/><circle cx="880" cy="470" r="14" fill="#57b8ec"/><rect x="905" y="462" width="110" height="10" rx="3" fill="#1c6ea4"/><rect x="905" y="480" width="90" height="8" rx="3" fill="#c7d6e3"/></svg>